<svg xmlns="http://www.w3.org/2000/svg" width="100" height="100"><path fill="#fefdef" d="M80 77H20a6 6 0 01-6-6V29a6 6 0 016-6h60a6 6 0 016 6v42a6 6 0 01-6 6z"/><path fill="#f15b6c" d="M23 77h-3a6 6 0 01-6-6V29h9v48zM77 77h3a6 6 0 006-6V29h-9v48z"/><path fill="#f15b6c" d="M82.09 24h-.004L50 47.5 17.914 24h-.004a3.41 3.41 0 00-3.41 3.41v1.554a5 5 0 002.046 4.034L50 57.5l33.454-24.502a5 5 0 002.046-4.034V27.41A3.41 3.41 0 0082.09 24z"/><path fill="#1f212b" d="M80 78H20c-3.859 0-7-3.14-7-7V29c0-3.86 3.141-7 7-7h60c3.859 0 7 3.14 7 7v42c0 3.86-3.141 7-7 7zM20 24c-2.757 0-5 2.243-5 5v42c0 2.757 2.243 5 5 5h60c2.757 0 5-2.243 5-5V29c0-2.757-2.243-5-5-5H20z"/><path fill="#1f212b" d="M50 58a.5.5 0 01-.296-.097L16.25 33.401A5.519 5.519 0 0114 28.964h1c0 1.429.688 2.786 1.841 3.63L50 56.88l33.158-24.286A4.51 4.51 0 0085 28.964h1a5.517 5.517 0 01-2.251 4.437L50.296 57.903A.5.5 0 0150 58zM22.5 74a.5.5 0 01-.5-.5v-33a.5.5 0 011 0v33a.5.5 0 01-.5.5zM77.5 62a.5.5 0 01-.5-.5v-21a.5.5 0 011 0v21a.5.5 0 01-.5.5zM77.5 70a.5.5 0 01-.5-.5v-5a.5.5 0 011 0v5a.5.5 0 01-.5.5zM77.5 74a.5.5 0 01-.5-.5v-1a.5.5 0 011 0v1a.5.5 0 01-.5.5z"/><path fill="#1f212b" d="M74.5 30.056a.5.5 0 01-.295-.904l2-1.464a.5.5 0 01.59.807l-2 1.464a.492.492 0 01-.295.097zM68.5 34.451a.5.5 0 01-.296-.904l4-2.93a.5.5 0 01.592.807l-4 2.93a.504.504 0 01-.296.097zM50 48a.5.5 0 01-.296-.097l-32.428-23.75a.5.5 0 11.592-.807L50 46.88l16.089-11.784a.5.5 0 01.592.807l-16.385 12A.5.5 0 0150 48z"/></svg>